<svg width="115" height="35" viewBox="0 0 115 35" fill="none" xmlns="http://www.w3.org/2000/svg">
<path d="M74.08 28.807L83.58 31.807L91.58 23.807L101.58 30.807L112.08 28.807L107.58 14.307L91.58 19.307L82.58 14.307L73.08 15.807L74.08 28.807Z" fill="#F1A501"/>
<path d="M0 23.871V21.709L6.118 20.605V23.595C6.14867 25.2203 6.56267 26.447 7.36 27.275C8.188 28.0723 9.27667 28.471 10.626 28.471C11.9447 28.471 12.9873 28.0417 13.754 27.183C14.5513 26.3243 14.95 25.1743 14.95 23.733V1.19299H21.298V23.733C21.298 26.7383 20.3013 29.2837 18.308 31.369C16.3147 33.4543 13.7693 34.497 10.672 34.497C7.452 34.497 4.86067 33.531 2.898 31.599C0.966 29.6363 0 27.0603 0 23.871Z" fill="black"/>
<path d="M22.7567 27.643C22.7567 25.711 23.3854 24.1623 24.6427 22.997C25.9 21.8317 27.5254 21.0957 29.5187 20.789L35.0847 19.961C36.2194 19.8077 36.7867 19.271 36.7867 18.351C36.7867 17.4923 36.4494 16.787 35.7747 16.235C35.1307 15.683 34.1954 15.407 32.9687 15.407C31.6807 15.407 30.6534 15.7597 29.8867 16.465C29.1507 17.1703 28.7367 18.0443 28.6447 19.087L23.2167 17.937C23.4314 15.9743 24.3974 14.2417 26.1147 12.739C27.832 11.2363 30.1014 10.485 32.9227 10.485C36.296 10.485 38.78 11.2977 40.3747 12.923C41.9694 14.5177 42.7667 16.5723 42.7667 19.087V30.219C42.7667 31.5683 42.8587 32.7643 43.0427 33.807H37.4307C37.2774 33.1323 37.2007 32.2277 37.2007 31.093C35.7594 33.3317 33.536 34.451 30.5307 34.451C28.2 34.451 26.314 33.7763 24.8727 32.427C23.462 31.0777 22.7567 29.483 22.7567 27.643ZM31.8187 29.897C33.26 29.897 34.4407 29.4983 35.3607 28.701C36.3114 27.873 36.7867 26.5237 36.7867 24.653V23.641L31.6807 24.423C29.81 24.699 28.8747 25.6497 28.8747 27.275C28.8747 28.011 29.1354 28.6397 29.6567 29.161C30.178 29.6517 30.8987 29.897 31.8187 29.897Z" fill="black"/>
<path d="M66.7377 0.502991V29.713C66.7377 31.2157 66.7991 32.5803 66.9217 33.807H61.0797C60.9264 33.0403 60.8497 32.1663 60.8497 31.185C60.3284 32.1357 59.5004 32.9023 58.3657 33.485C57.2617 34.0677 55.9737 34.359 54.5017 34.359C51.2817 34.359 48.6291 33.2397 46.5437 31.001C44.4891 28.7317 43.4617 25.8797 43.4617 22.445C43.4617 19.1023 44.4737 16.2963 46.4977 14.027C48.5524 11.7577 51.1591 10.623 54.3177 10.623C57.5684 10.623 59.6997 11.5583 60.7117 13.429V0.502991H66.7377ZM49.6257 22.445C49.6257 24.4383 50.1471 26.0177 51.1897 27.183C52.2324 28.3177 53.5817 28.885 55.2377 28.885C56.8631 28.885 58.1971 28.3023 59.2397 27.137C60.2824 25.9717 60.8037 24.3923 60.8037 22.399C60.8037 20.4363 60.2824 18.903 59.2397 17.799C58.1971 16.6643 56.8631 16.097 55.2377 16.097C53.6124 16.097 52.2631 16.6643 51.1897 17.799C50.1471 18.9337 49.6257 20.4823 49.6257 22.445Z" fill="black"/>
<path d="M75.7667 27.229C76.9013 28.3637 78.266 28.931 79.8607 28.931C81.4553 28.931 82.8047 28.3637 83.9087 27.229C85.0433 26.0943 85.6107 24.515 85.6107 22.491C85.6107 20.467 85.0433 18.8877 83.9087 17.753C82.8047 16.6183 81.4553 16.051 79.8607 16.051C78.266 16.051 76.9013 16.6183 75.7667 17.753C74.6627 18.8877 74.1107 20.467 74.1107 22.491C74.1107 24.515 74.6627 26.0943 75.7667 27.229ZM71.3507 13.889C73.62 11.6197 76.4567 10.485 79.8607 10.485C83.2647 10.485 86.086 11.6197 88.3247 13.889C90.594 16.1583 91.7287 19.0257 91.7287 22.491C91.7287 25.9563 90.594 28.8237 88.3247 31.093C86.086 33.3623 83.2647 34.497 79.8607 34.497C76.4567 34.497 73.62 33.3623 71.3507 31.093C69.112 28.8237 67.9927 25.9563 67.9927 22.491C67.9927 19.0257 69.112 16.1583 71.3507 13.889Z" fill="black"/>
<path d="M98.95 27.229C100.085 28.3637 101.449 28.931 103.044 28.931C104.639 28.931 105.988 28.3637 107.092 27.229C108.227 26.0943 108.794 24.515 108.794 22.491C108.794 20.467 108.227 18.8877 107.092 17.753C105.988 16.6183 104.639 16.051 103.044 16.051C101.449 16.051 100.085 16.6183 98.95 17.753C97.846 18.8877 97.294 20.467 97.294 22.491C97.294 24.515 97.846 26.0943 98.95 27.229ZM94.534 13.889C96.8033 11.6197 99.64 10.485 103.044 10.485C106.448 10.485 109.269 11.6197 111.508 13.889C113.777 16.1583 114.912 19.0257 114.912 22.491C114.912 25.9563 113.777 28.8237 111.508 31.093C109.269 33.3623 106.448 34.497 103.044 34.497C99.64 34.497 96.8033 33.3623 94.534 31.093C92.2953 28.8237 91.1759 25.9563 91.1759 22.491C91.1759 19.0257 92.2953 16.1583 94.534 13.889Z" fill="black"/>
</svg>
